<?xml version="1.0" encoding="UTF-8" standalone="no"?>
<!DOCTYPE svg PUBLIC "-//W3C//DTD SVG 1.1//EN" "http://www.w3.org/Graphics/SVG/1.1/DTD/svg11.dtd">
<svg width="100%" height="100%" viewBox="0 0 305 305" version="1.1" xmlns="http://www.w3.org/2000/svg" xmlns:xlink="http://www.w3.org/1999/xlink" xml:space="preserve" xmlns:serif="http://www.serif.com/" style="fill-rule:evenodd;clip-rule:evenodd;stroke-linejoin:round;stroke-miterlimit:1.41421;">
    <g transform="matrix(1.27119,0,0,1.27119,0,-36.3377)">
        <path d="M239.251,64.473C239.251,44.666 223.17,28.586 203.363,28.586L35.888,28.586C16.081,28.586 0,44.666 0,64.473L0,231.949C0,251.756 16.081,267.837 35.888,267.837L203.363,267.837C223.17,267.837 239.251,251.756 239.251,231.949L239.251,64.473Z" style="fill:white;"/>
    </g>
    <g transform="matrix(0.415436,0,0,0.415436,19.1274,46.0105)">
        <path d="M624,416L608,416C581.96,416 562.2,407.58 551.91,398.1C543.01,389.89 532.25,384 520.14,384L503.84,384C491.73,384 480.97,389.89 472.07,398.1C461.8,407.58 442.04,416 416,416C389.96,416 370.2,407.58 359.91,398.1C351.01,389.89 340.25,384 328.14,384L311.84,384C299.73,384 288.97,389.89 280.07,398.1C269.8,407.58 250.04,416 224,416C197.96,416 178.2,407.58 167.91,398.1C159.01,389.89 148.25,384 136.14,384L119.84,384C107.73,384 96.97,389.89 88.07,398.1C77.8,407.58 58.04,416 32,416L16,416C7.16,416 0,423.16 0,432L0,464C0,472.84 7.16,480 16,480L32,480C70.62,480 104.72,467.81 128,448.16C151.28,467.82 185.38,480 224,480C262.62,480 296.72,467.81 320,448.16C343.28,467.82 377.38,480 416,480C454.62,480 488.72,467.81 512,448.16C535.28,467.82 569.38,480 608,480L624,480C632.84,480 640,472.84 640,464L640,432C640,423.16 632.84,416 624,416ZM224,384L224,288L416,288L416,384C435.12,384 446.86,377.84 450.39,374.58C459.56,366.12 469.59,360.24 480,356.51L480,128C480,110.36 494.36,96 512,96C529.64,96 544,110.36 544,128L544,144C544,152.84 551.16,160 560,160L592,160C600.84,160 608,152.84 608,144L608,128C608,75.06 564.94,32 512,32C459.06,32 416,75.06 416,128L416,224L224,224L224,128C224,110.36 238.36,96 256,96C273.64,96 288,110.36 288,128L288,144C288,152.84 295.16,160 304,160L336,160C344.84,160 352,152.84 352,144L352,128C352,75.06 308.94,32 256,32C203.06,32 160,75.06 160,128L160,356.5C170.41,360.23 180.44,366.12 189.61,374.57C193.14,377.84 204.88,384 224,384Z" style="fill:rgb(237,28,36);fill-rule:nonzero;"/>
    </g>
</svg>
