<?xml version="1.0" encoding="UTF-8" standalone="no"?>
<!DOCTYPE svg PUBLIC "-//W3C//DTD SVG 1.1//EN" "http://www.w3.org/Graphics/SVG/1.1/DTD/svg11.dtd">
<svg width="100%" height="100%" viewBox="0 0 305 305" version="1.1" xmlns="http://www.w3.org/2000/svg" xmlns:xlink="http://www.w3.org/1999/xlink" xml:space="preserve" xmlns:serif="http://www.serif.com/" style="fill-rule:evenodd;clip-rule:evenodd;stroke-linejoin:round;stroke-miterlimit:1.41421;">
    <circle cx="152.067" cy="152.067" r="152.067" style="fill:white;"/>
    <clipPath id="_clip1">
        <circle cx="152.067" cy="152.067" r="152.067"/>
    </clipPath>
    <g clip-path="url(#_clip1)">
        <g transform="matrix(0.226973,0,0,0.226973,-136.766,54.6044)">
            <path d="M1304.81,570.378C1370.79,570.378 1424.35,623.798 1424.35,689.596C1424.35,755.393 1370.69,807.492 1304.71,807.492C1238.74,807.492 1185.27,755.393 1185.27,689.596C1185.27,623.798 1238.84,570.378 1304.81,570.378ZM1052.6,803L945.845,803C945.845,803 945.891,720.851 945.845,681.518C631.967,792.964 301.138,727.081 222.182,667.088C357.179,682.421 464.753,681.825 546.531,677.2C530.754,669.582 475.661,665.612 479.598,633.583C483.817,599.265 522.012,593.436 537.294,586.959C570.423,572.27 664.719,526.834 752.144,479.604C826.459,437.76 896.079,396.147 920.648,381.937C914.732,357.496 904.203,326.802 892.26,301.083C882.251,279.53 871.132,262.395 858.078,256.528C826.039,242.127 746.215,324.622 744.262,322.696C737.004,315.537 792.111,215.986 848.759,214.572C904.815,223.793 941.802,294.574 971.225,389.773C908.696,434.927 844.898,478.852 780.874,518.704C718.714,557.396 656.359,592.168 593.461,625.659C724.747,643.92 806.784,625.478 945.142,570.464L945.142,500.748L1053.36,500.748L1053.36,525.438L1064.5,521.785L1064.5,499.978L1116.37,499.978L1201.07,462.464C1199.02,456.845 1123.88,277.883 1024.83,176.087C979.846,129.862 951.353,119.192 921.277,115.624C880.235,110.754 820.683,167.059 766.449,227.701C702.017,299.746 645.68,378.318 645.043,373.402C643.746,363.383 816.089,52.435 929.682,54.053C954.773,54.41 991.706,70.791 1026.76,97.976C1050.57,116.438 1072.33,139.351 1093.51,167.675C1175.22,276.943 1226.89,360.969 1257.52,414.263C1269.52,435.153 1284.04,468.201 1277.25,487.437C1295.14,479.875 1339.07,463.981 1370.83,450.26C1297.35,441.21 1223.88,358.141 1228.15,282.606C1223.91,198.145 1299.09,101.677 1405.62,102.402C1508.5,103.102 1561.38,168.995 1579.66,218.632C1611.97,306.378 1561.97,377.276 1557.44,381.901C1557.24,382.013 1557.14,382.093 1557.14,382.141C1557.19,382.132 1557.29,382.051 1557.44,381.901C1565.79,377.084 1750.86,313.752 1830.6,305.511C1902.27,298.103 1976.53,295.67 2024.93,309.048C2065.45,320.248 2118.95,334.363 2116.49,385.891C2051.45,368.207 1934.47,357.971 1845.76,369.965C1731.9,385.358 1444.92,499.037 1446.2,501.097L1861.14,500.325L1861.14,605.203L1798.43,605.203L1798.43,803L1690.64,803L1690.64,606.009L1627.25,606.009L1627.25,569.349L1570.4,698.941L1648.26,698.941L1648.26,803.025L1408.57,803.025L1493.34,606.126L1409.05,606.126L1409.05,514.058C1329.65,545.907 1250.57,576.59 1171.9,605.734L1171.9,803.459L1065.6,803.459L1065.6,699.549L1052.6,699.549L1052.6,803ZM1304.71,596.43C1356.71,596.43 1399.02,637.74 1399.02,689.596C1399.02,741.452 1356.71,782.828 1304.71,782.828C1252.72,782.828 1210.6,741.452 1210.6,689.596C1210.6,637.74 1252.72,596.43 1304.71,596.43ZM1147.68,525L1091.01,525L1089.91,779L1147.68,779L1147.68,525ZM1028,525L970.532,525L969.637,779L1028.04,779L1028.04,671.059L1051,671.059L1051,624.932L1028,624.932L1028,525ZM1617.34,525L1435.28,525L1434.79,580.7L1531.34,580.7L1446.49,779L1622.67,779L1622.67,724.276L1532.07,723.13L1617.34,525ZM1836.16,525L1652.32,525L1652.3,580.607L1715.74,581L1715.74,778.253L1773.2,778.253L1773.2,581L1836.16,581L1836.16,525ZM1304.81,646.4C1327.94,646.4 1346.62,666.072 1346.62,689.566C1346.62,713.061 1327.94,732.6 1304.81,732.6C1281.68,732.6 1262.81,713.061 1262.81,689.566C1262.81,666.072 1281.68,646.4 1304.81,646.4ZM1304.81,671.521C1314.15,671.521 1321.63,680.084 1321.63,689.566C1321.63,699.049 1314.15,708.075 1304.81,708.075C1295.48,708.075 1287.8,699.049 1287.8,689.566C1287.8,680.084 1295.48,671.521 1304.81,671.521ZM1409.57,154.367C1481.11,154.367 1539.2,210.297 1539.2,279.187C1539.2,348.078 1481.11,404.008 1409.57,404.008C1338.02,404.008 1279.93,348.078 1279.93,279.187C1279.93,210.297 1338.02,154.367 1409.57,154.367Z" style="fill:rgb(242,13,13);"/>
        </g>
    </g>
</svg>
