<?xml version="1.0" encoding="UTF-8" standalone="no"?>
<!DOCTYPE svg PUBLIC "-//W3C//DTD SVG 1.1//EN" "http://www.w3.org/Graphics/SVG/1.1/DTD/svg11.dtd">
<svg width="100%" height="100%" viewBox="0 0 471 389" version="1.1" xmlns="http://www.w3.org/2000/svg" xmlns:xlink="http://www.w3.org/1999/xlink" xml:space="preserve" xmlns:serif="http://www.serif.com/" style="fill-rule:evenodd;clip-rule:evenodd;stroke-linejoin:round;stroke-miterlimit:1.41421;">
    <g id="Artboard1" transform="matrix(1.05687,0,0,1.04827,-1395.35,-2244.26)">
        <rect x="1320.27" y="2140.92" width="444.978" height="370.296" style="fill:none;"/>
        <g transform="matrix(0.946193,0,0,0.953955,95.2386,116.505)">
            <g transform="matrix(5.55556,0,0,5.55556,1414.98,2237.59)">
                <path d="M0,12.032L5.171,-3.083L29.632,-7.656L29.632,-16.307L32.018,-13.125L37.487,-17.401L36.791,-10.512L45.243,-13.921L42.36,-9.148L50.016,-9.844L43.354,-6.265L47.729,-4.972L31.521,-4.872L19.291,29.433L4.773,29.433L6.364,17.998L-4.972,22.274L-3.182,14.916L-6.563,11.932L0,12.032Z" style="fill:rgb(159,201,59);fill-rule:nonzero;"/>
            </g>
            <g transform="matrix(5.55556,0,0,5.55556,1494.52,2254.16)">
                <path d="M0,24.661L-5.369,9.248L-4.375,4.873L-1.79,7.16L-1.193,-0.596L4.773,5.569L7.408,-0.596L9.447,3.033L10.54,-3.778L15.612,2.288L21.279,-7.159L25.654,12.729L29.334,12.629L26.351,15.513L26.649,17.999L17.103,19.987L24.262,24.661L25.058,30.627L8.85,31.82L0,24.661Z" style="fill:rgb(210,222,53);fill-rule:nonzero;"/>
            </g>
            <g transform="matrix(5.55556,0,0,5.55556,1631.1,2327.4)">
                <path d="M0,7.158L17.824,0L18.947,4.351L0,7.158Z" style="fill:rgb(210,222,53);fill-rule:nonzero;"/>
            </g>
            <g transform="matrix(5.55556,0,0,5.55556,1630.2,2390.88)">
                <path d="M0,-3.431L19.2,-3.95L18.741,0.519L0,-3.431Z" style="fill:rgb(210,222,53);fill-rule:nonzero;"/>
            </g>
            <g transform="matrix(5.5382,-0.438761,0.438761,5.5382,0,0)">
                <text x="221.6px" y="461.899px" style="font-family:'HelveticaNeue-Bold', 'Helvetica Neue';font-weight:700;font-size:3.182px;fill:rgb(187,55,45);">K</text>
            </g>
            <g transform="matrix(5.53822,-0.438588,0.438588,5.53822,0,0)">
                <text x="223.909px" y="461.892px" style="font-family:'HelveticaNeue-Bold', 'Helvetica Neue';font-weight:700;font-size:3.182px;fill:rgb(187,55,45);">IN</text>
            </g>
            <g transform="matrix(5.5382,-0.438761,0.438761,5.5382,0,0)">
                <text x="227.191px" y="461.899px" style="font-family:'HelveticaNeue-Bold', 'Helvetica Neue';font-weight:700;font-size:3.182px;fill:rgb(187,55,45);">D</text>
                <text x="229.548px" y="461.899px" style="font-family:'HelveticaNeue-Bold', 'Helvetica Neue';font-weight:700;font-size:3.182px;fill:rgb(187,55,45);">ER</text>
            </g>
            <g transform="matrix(5.53822,-0.438588,0.438588,5.53822,0,0)">
                <text x="233.925px" y="461.892px" style="font-family:'HelveticaNeue-Bold', 'Helvetica Neue';font-weight:700;font-size:3.182px;fill:rgb(187,55,45);">K</text>
            </g>
            <g transform="matrix(5.5382,-0.438587,0.438761,5.5382,0.0833876,-0.00660371)">
                <text x="236.194px" y="461.892px" style="font-family:'HelveticaNeue-Bold', 'Helvetica Neue';font-weight:700;font-size:3.182px;fill:rgb(187,55,45);">O</text>
            </g>
            <g transform="matrix(5.53822,-0.438588,0.438588,5.53822,0,0)">
                <text x="238.697px" y="461.892px" style="font-family:'HelveticaNeue-Bold', 'Helvetica Neue';font-weight:700;font-size:3.182px;fill:rgb(187,55,45);">O</text>
            </g>
            <g transform="matrix(5.5382,-0.438761,0.438761,5.5382,0,0)">
                <text x="241.161px" y="461.899px" style="font-family:'HelveticaNeue-Bold', 'Helvetica Neue';font-weight:700;font-size:3.182px;fill:rgb(187,55,45);">R</text>
            </g>
            <g transform="matrix(5.53822,-0.438588,0.438588,5.53822,0,0)">
                <text x="244.357px" y="461.892px" style="font-family:'HelveticaNeue-Bold', 'Helvetica Neue';font-weight:700;font-size:3.182px;fill:rgb(187,55,45);">J</text>
            </g>
            <g transform="matrix(5.5382,-0.438587,0.438761,5.5382,0.0835237,-0.00661448)">
                <text x="246.099px" y="461.892px" style="font-family:'HelveticaNeue-Bold', 'Helvetica Neue';font-weight:700;font-size:3.182px;fill:rgb(187,55,45);">U</text>
            </g>
            <g transform="matrix(5.53822,-0.438588,0.438588,5.53822,0,0)">
                <text x="248.486px" y="461.892px" style="font-family:'HelveticaNeue-Bold', 'Helvetica Neue';font-weight:700;font-size:3.182px;fill:rgb(187,55,45);">B</text>
            </g>
            <g transform="matrix(5.5382,-0.438761,0.438761,5.5382,0,0)">
                <text x="250.709px" y="461.899px" style="font-family:'HelveticaNeue-Bold', 'Helvetica Neue';font-weight:700;font-size:3.182px;fill:rgb(187,55,45);">I</text>
            </g>
            <g transform="matrix(5.5382,-0.438587,0.438761,5.5382,0.0835997,-0.0066205)">
                <text x="251.634px" y="461.892px" style="font-family:'HelveticaNeue-Bold', 'Helvetica Neue';font-weight:700;font-size:3.182px;fill:rgb(187,55,45);">L</text>
            </g>
            <g transform="matrix(5.5382,-0.438761,0.438761,5.5382,0,0)">
                <text x="253.535px" y="461.9px" style="font-family:'HelveticaNeue-Bold', 'Helvetica Neue';font-weight:700;font-size:3.182px;fill:rgb(187,55,45);">A</text>
            </g>
            <g transform="matrix(5.53822,-0.438588,0.438588,5.53822,0,0)">
                <text x="255.439px" y="461.892px" style="font-family:'HelveticaNeue-Bold', 'Helvetica Neue';font-weight:700;font-size:3.182px;fill:rgb(187,55,45);">TE</text>
            </g>
            <g transform="matrix(5.5382,-0.438761,0.438761,5.5382,0,0)">
                <path d="M239.454,465.692L239.454,463.414L239.701,463.414L239.701,464.349L240.672,464.349L240.672,463.414L240.919,463.414L240.919,465.692L240.672,465.692L240.672,464.618L239.701,464.618L239.701,465.692L239.454,465.692Z" style="fill:rgb(187,55,45);fill-rule:nonzero;"/>
                <path d="M241.269,464.582C241.269,464.194 241.354,463.895 241.525,463.687C241.696,463.478 241.909,463.373 242.164,463.373C242.328,463.373 242.479,463.42 242.614,463.513C242.75,463.607 242.857,463.742 242.937,463.92C243.016,464.097 243.055,464.309 243.055,464.554C243.055,464.892 242.979,465.167 242.826,465.379C242.657,465.613 242.436,465.73 242.162,465.73C241.887,465.73 241.665,465.61 241.497,465.37C241.345,465.152 241.269,464.89 241.269,464.582ZM241.524,464.587C241.524,464.868 241.585,465.085 241.709,465.24C241.833,465.395 241.983,465.472 242.161,465.472C242.342,465.472 242.494,465.394 242.617,465.238C242.739,465.081 242.801,464.852 242.801,464.548C242.801,464.352 242.769,464.177 242.706,464.023C242.657,463.905 242.584,463.81 242.486,463.739C242.388,463.668 242.281,463.633 242.165,463.633C241.979,463.633 241.825,463.711 241.705,463.866C241.584,464.021 241.524,464.262 241.524,464.587Z" style="fill:rgb(187,55,45);fill-rule:nonzero;"/>
                <path d="M243.299,464.582C243.299,464.194 243.385,463.895 243.556,463.687C243.727,463.478 243.94,463.373 244.194,463.373C244.359,463.373 244.509,463.42 244.645,463.513C244.781,463.607 244.888,463.742 244.967,463.92C245.047,464.097 245.086,464.309 245.086,464.554C245.086,464.892 245.009,465.167 244.856,465.379C244.687,465.613 244.466,465.73 244.193,465.73C243.917,465.73 243.696,465.61 243.528,465.37C243.376,465.152 243.299,464.89 243.299,464.582ZM243.554,464.587C243.554,464.868 243.616,465.085 243.74,465.24C243.864,465.395 244.014,465.472 244.191,465.472C244.372,465.472 244.524,465.394 244.647,465.238C244.77,465.081 244.831,464.852 244.831,464.548C244.831,464.352 244.8,464.177 244.737,464.023C244.688,463.905 244.615,463.81 244.517,463.739C244.419,463.668 244.312,463.633 244.196,463.633C244.009,463.633 243.856,463.711 243.735,463.866C243.615,464.021 243.554,464.262 243.554,464.587Z" style="fill:rgb(187,55,45);fill-rule:nonzero;"/>
                <path d="M246.279,464.798L246.279,464.531L247.07,464.53L247.07,465.375C246.949,465.493 246.824,465.582 246.694,465.641C246.565,465.701 246.432,465.731 246.295,465.731C246.113,465.731 245.95,465.685 245.807,465.594C245.664,465.503 245.551,465.37 245.468,465.195C245.384,465.02 245.342,464.809 245.342,464.564C245.342,464.315 245.384,464.099 245.468,463.914C245.552,463.73 245.662,463.594 245.798,463.507C245.933,463.419 246.094,463.375 246.279,463.375C246.416,463.375 246.536,463.401 246.638,463.451C246.741,463.502 246.825,463.574 246.891,463.667C246.958,463.761 247.008,463.888 247.041,464.051L246.818,464.126C246.788,463.997 246.751,463.901 246.705,463.837C246.659,463.774 246.599,463.724 246.525,463.688C246.45,463.651 246.366,463.633 246.273,463.633C246.137,463.633 246.021,463.666 245.923,463.732C245.825,463.798 245.746,463.9 245.687,464.039C245.627,464.177 245.597,464.347 245.597,464.547C245.597,464.851 245.661,465.079 245.788,465.231C245.916,465.383 246.082,465.459 246.286,465.459C246.383,465.459 246.483,465.435 246.585,465.389C246.687,465.342 246.768,465.287 246.828,465.223L246.828,464.798L246.279,464.798Z" style="fill:rgb(187,55,45);fill-rule:nonzero;"/>
                <path d="M247.447,464.96L247.68,464.935C247.692,465.06 247.72,465.158 247.764,465.228C247.808,465.298 247.871,465.354 247.953,465.397C248.035,465.439 248.127,465.46 248.23,465.46C248.377,465.46 248.491,465.424 248.572,465.352C248.654,465.28 248.694,465.187 248.694,465.072C248.694,465.004 248.68,464.946 248.65,464.895C248.621,464.845 248.576,464.804 248.516,464.772C248.457,464.74 248.328,464.695 248.13,464.637C247.954,464.585 247.829,464.533 247.754,464.48C247.68,464.427 247.622,464.36 247.58,464.279C247.539,464.197 247.518,464.105 247.518,464.003C247.518,463.818 247.578,463.668 247.697,463.551C247.816,463.434 247.977,463.375 248.179,463.375C248.317,463.375 248.439,463.403 248.543,463.458C248.647,463.512 248.728,463.591 248.785,463.694C248.843,463.796 248.874,463.917 248.878,464.056L248.64,464.077C248.628,463.929 248.583,463.82 248.507,463.748C248.431,463.677 248.324,463.641 248.186,463.641C248.046,463.641 247.94,463.672 247.866,463.735C247.793,463.798 247.756,463.879 247.756,463.978C247.756,464.07 247.783,464.142 247.837,464.192C247.891,464.243 248.012,464.294 248.2,464.346C248.385,464.397 248.514,464.441 248.589,464.478C248.703,464.536 248.789,464.613 248.847,464.707C248.905,464.802 248.934,464.915 248.934,465.047C248.934,465.177 248.903,465.296 248.842,465.403C248.781,465.511 248.698,465.592 248.593,465.648C248.487,465.704 248.361,465.732 248.213,465.732C247.982,465.732 247.798,465.663 247.66,465.524C247.523,465.385 247.452,465.197 247.447,464.96Z" style="fill:rgb(187,55,45);fill-rule:nonzero;"/>
                <path d="M249.749,465.692L249.749,463.683L249.134,463.683L249.134,463.414L250.615,463.414L250.615,463.683L249.996,463.683L249.996,465.692L249.749,465.692Z" style="fill:rgb(187,55,45);fill-rule:nonzero;"/>
                <path d="M250.863,465.692L250.863,463.414L251.691,463.414C251.864,463.414 251.992,463.435 252.074,463.478C252.157,463.52 252.224,463.591 252.277,463.69C252.33,463.789 252.356,463.904 252.356,464.034C252.356,464.206 252.312,464.345 252.222,464.452C252.132,464.559 252.002,464.626 251.831,464.655C251.901,464.697 251.953,464.739 251.99,464.781C252.063,464.868 252.128,464.965 252.184,465.072L252.51,465.692L252.199,465.692L251.951,465.218C251.855,465.033 251.782,464.908 251.733,464.843C251.683,464.779 251.636,464.736 251.59,464.714C251.544,464.691 251.479,464.68 251.396,464.68L251.11,464.68L251.11,465.692L250.863,465.692ZM251.11,464.419L251.642,464.419C251.758,464.419 251.846,464.405 251.906,464.377C251.966,464.349 252.014,464.305 252.049,464.245C252.084,464.185 252.102,464.115 252.102,464.036C252.102,463.921 252.068,463.83 252.001,463.764C251.933,463.699 251.833,463.666 251.701,463.666L251.11,463.666L251.11,464.419Z" style="fill:rgb(187,55,45);fill-rule:nonzero;"/>
                <path d="M252.543,465.692L253.261,463.414L253.526,463.414L254.291,465.692L254.008,465.692L253.79,465.002L253.01,465.002L252.805,465.692L252.543,465.692ZM253.082,464.756L253.714,464.756L253.52,464.126C253.46,463.932 253.416,463.775 253.388,463.653C253.364,463.799 253.331,463.944 253.287,464.088L253.082,464.756Z" style="fill:rgb(187,55,45);fill-rule:nonzero;"/>
                <path d="M254.967,465.692L254.967,463.683L254.351,463.683L254.351,463.414L255.832,463.414L255.832,463.683L255.214,463.683L255.214,465.692L254.967,465.692Z" style="fill:rgb(187,55,45);fill-rule:nonzero;"/>
                <path d="M256.087,465.692L256.087,463.414L257.437,463.414L257.437,463.683L256.334,463.683L256.334,464.381L257.367,464.381L257.367,464.648L256.334,464.648L256.334,465.423L257.48,465.423L257.48,465.692L256.087,465.692Z" style="fill:rgb(187,55,45);fill-rule:nonzero;"/>
                <path d="M257.814,465.692L257.814,463.414L258.068,463.414L259.05,465.202L259.05,463.414L259.286,463.414L259.286,465.692L259.033,465.692L258.052,463.902L258.052,465.692L257.814,465.692Z" style="fill:rgb(187,55,45);fill-rule:nonzero;"/>
            </g>
            <g transform="matrix(5.55556,0,0,5.55556,1628.28,2441.5)">
                <path d="M0,-11.488L17.628,-3.86L15.326,0L0,-11.488Z" style="fill:rgb(210,222,53);fill-rule:nonzero;"/>
            </g>
            <g transform="matrix(5.55556,0,0,5.55556,1424.74,2413.73)">
                <path d="M0,-8.154L-18.805,-4.244L-17.331,0L0,-8.154Z" style="fill:rgb(159,201,59);fill-rule:nonzero;"/>
            </g>
            <g transform="matrix(5.55556,0,0,5.55556,1428.06,2447.74)">
                <path d="M0,-13.668L-16.275,-3.468L-13.418,0L0,-13.668Z" style="fill:rgb(159,201,59);fill-rule:nonzero;"/>
            </g>
            <g transform="matrix(5.55556,0,0,5.55556,1432.91,2475.92)">
                <path d="M0,-18.053L-10.454,-1.94L-6.4,0L0,-18.053Z" style="fill:rgb(159,201,59);fill-rule:nonzero;"/>
            </g>
        </g>
    </g>
</svg>
